<?xml version="1.0" encoding="UTF-8" standalone="no"?>
<!-- Created with Inkscape (http://www.inkscape.org/) -->

<svg
   xmlns:dc="http://purl.org/dc/elements/1.1/"
   xmlns:cc="http://creativecommons.org/ns#"
   xmlns:rdf="http://www.w3.org/1999/02/22-rdf-syntax-ns#"
   xmlns:svg="http://www.w3.org/2000/svg"
   xmlns="http://www.w3.org/2000/svg"
   xmlns:sodipodi="http://sodipodi.sourceforge.net/DTD/sodipodi-0.dtd"
   xmlns:inkscape="http://www.inkscape.org/namespaces/inkscape"
   width="69.430099mm"
   height="82.791924mm"
   viewBox="0 0 246.01217 293.35721"
   id="svg4286"
   version="1.1"
   inkscape:version="0.91 r13725"
   sodipodi:docname="logo.svg">
  <defs
     id="defs4288" />
  <sodipodi:namedview
     id="base"
     pagecolor="#ffffff"
     bordercolor="#666666"
     borderopacity="1.0"
     inkscape:pageopacity="0.0"
     inkscape:pageshadow="2"
     inkscape:zoom="2.676652"
     inkscape:cx="157.76384"
     inkscape:cy="147.61324"
     inkscape:document-units="px"
     inkscape:current-layer="layer1"
     showgrid="false"
     fit-margin-top="0"
     fit-margin-left="0"
     fit-margin-right="0"
     fit-margin-bottom="0"
     inkscape:window-width="1920"
     inkscape:window-height="1029"
     inkscape:window-x="0"
     inkscape:window-y="0"
     inkscape:window-maximized="1" />
  <metadata
     id="metadata4291">
    <rdf:RDF>
      <cc:Work
         rdf:about="">
        <dc:format>image/svg+xml</dc:format>
        <dc:type
           rdf:resource="http://purl.org/dc/dcmitype/StillImage" />
        <dc:title></dc:title>
      </cc:Work>
    </rdf:RDF>
  </metadata>
  <g
     inkscape:label="Layer 1"
     inkscape:groupmode="layer"
     id="layer1"
     transform="translate(-388.43668,-577.45844)">
    <g
       id="g3462"
       transform="matrix(1.3480119,0,0,1.2639987,-52.083525,-197.31025)">
      <path
         class="st15"
         d="m 410.85415,772.18814 c -9.1,-2 -16.3,-9.7 -17.8,-18.9 -0.7,-4.1 -0.7,-37.8 0,-41.9 1.8,-11.2 11.3,-19.1 22.9,-19.1 10.5,0 18.7,5.6 22.3,15.5 1,2.7 1.1,3.8 1.3,21.9 0.1,11.9 0,20.4 -0.3,22.9 -0.7,5.3 -2.8,9.6 -6.6,13.4 -3.5,3.5 -6.9,5.3 -11.5,6.3 -4,0.7 -6.3,0.7 -10.3,-0.1 z"
         id="path51"
         inkscape:connector-curvature="0"
         style="fill:none;stroke:#ffffff;stroke-width:2.29999995;stroke-linejoin:round;stroke-miterlimit:16.20000076" />
      <path
         class="st18"
         d="m 392.05415,745.68814 0.4,-79.7 c 0.1,-14.7 10.5,-26.5 23.3,-26.5 12.8,0.1 23.1,12 23,26.7 l -0.4,79.7 c -0.1,14.7 -10.5,26.5 -23.3,26.5 -12.8,-0.1 -23,-12.1 -23,-26.7 z m 51.3,3.3 0.4,-85.7 c 0.1,-15.8 -12.4,-28.7 -27.6,-28.8 -15.1,-0.1 -27.7,12.7 -27.8,28.5 l -0.4,85.7 c -0.1,15.8 12.4,28.7 27.5,28.8 15.2,0 27.8,-12.8 27.9,-28.5 z"
         id="path53"
         inkscape:connector-curvature="0"
         style="fill:#df315b" />
      <path
         class="st18"
         d="m 440.15415,712.48814 0.2,-50.7 c 0.1,-13 -10.9,-23.6 -24.3,-23.6 -13.4,-0.1 -24.4,10.4 -24.5,23.4 l -0.2,50.7 48.8,0.2 z"
         id="path55"
         inkscape:connector-curvature="0"
         style="fill:#df315b" />
      <ellipse
         class="st9"
         cx="392.05414"
         cy="661.78815"
         rx="12.1"
         ry="12.3"
         id="ellipse57"
         style="fill:#008bcb" />
      <ellipse
         class="st2"
         cx="392.05414"
         cy="661.78815"
         rx="12.1"
         ry="12.3"
         id="ellipse59"
         style="opacity:0.94120029;fill:none;stroke:#ffffff;stroke-width:3.9309001" />
      <path
         class="st9"
         d="m 455.15415,668.08814 c 0,10.2 -8.1,18.4 -18.2,18.4 -10,0 -18.2,-8.2 -18.2,-18.4 0,-10.2 8.1,-18.4 18.2,-18.4 10,0.1 18.2,8.3 18.2,18.4 z"
         id="path61"
         inkscape:connector-curvature="0"
         style="fill:#008bcb" />
      <path
         class="st7"
         d="m 455.15415,668.08814 c 0,10.2 -8.1,18.4 -18.2,18.4 -10,0 -18.2,-8.2 -18.2,-18.4 0,-10.2 8.1,-18.4 18.2,-18.4 10,0.1 18.2,8.3 18.2,18.4 z"
         id="path63"
         inkscape:connector-curvature="0"
         style="opacity:0.94120029;fill:none;fill-opacity:1;stroke:#ffffff;stroke-width:5.88439989" />
      <path
         class="st4"
         d="m 392.75415,663.98814 c -1,0.5 -2.1,-0.2 -2.5,-1.4 -0.4,-1.2 0.1,-2.5 1.2,-3 1,-0.5 2.2,0.2 2.6,1.4 0.2,1.2 -0.3,2.5 -1.3,3 z"
         id="path65"
         inkscape:connector-curvature="0"
         style="fill:#ffeb5c" />
      <path
         class="st4"
         d="m 437.65415,670.28814 c -1,0.5 -2.2,-0.2 -2.6,-1.4 -0.4,-1.2 0.1,-2.5 1.2,-3 1,-0.5 2.2,0.2 2.6,1.4 0.3,1.2 -0.2,2.6 -1.2,3 z"
         id="path67"
         inkscape:connector-curvature="0"
         style="fill:#ffeb5c" />
      <line
         class="st17"
         x1="415.45416"
         y1="634.48816"
         x2="415.75415"
         y2="619.08813"
         id="line69"
         style="clip-rule:evenodd;fill:#008ccb;fill-rule:evenodd" />
      <line
         class="st0"
         x1="415.45416"
         y1="634.48816"
         x2="415.75415"
         y2="619.08813"
         id="line71"
         style="fill:none;stroke:#008bcb;stroke-width:1.37150002" />
      <path
         class="st10"
         d="m 417.05415,619.68814 c -1.8,0.7 -3.8,-0.2 -4.5,-2 -0.7,-1.8 0.2,-3.8 2,-4.5 1.8,-0.7 3.8,0.2 4.5,2 0.6,1.8 -0.3,3.8 -2,4.5 z"
         id="path73"
         inkscape:connector-curvature="0"
         style="fill:#008ccb" />
    </g>
    <g
       id="g3418"
       transform="matrix(1.3480119,0,0,1.2639987,-227.13855,-87.280367)">
      <g
         transform="translate(329.05415,497.48814)"
         id="g7">
        <path
           class="st6"
           d="m 129.6,256.2 -1.7,0 0,-10.4 1.5,0 0.3,1 c 0.6,-0.7 1.3,-1 2.1,-1 2,0 3,1.2 3,3.6 l 0,6.8 -1.8,0 0,-6.8 c 0,-1 -0.4,-1.6 -1.3,-1.6 -0.9,0 -1.6,0.2 -2.1,0.5 l 0,7.9 z"
           id="path9"
           inkscape:connector-curvature="0"
           style="fill:#666666" />
        <path
           class="st6"
           d="m 138.1,251.8 0,0.7 c 0,1 0.4,1.6 1.3,1.6 l 3.4,0 0,2.1 -3.4,0 c -2,0 -3,-1.2 -3,-3.6 l 0,-3.1 c 0,-2.4 1,-3.6 3,-3.6 l 0.9,0 c 2,0 3,1.2 3,3.6 l 0,2.4 -5.2,0 z m 0,-1.6 3.4,0 0,-0.7 c 0,-1 -0.4,-1.6 -1.3,-1.6 l -0.9,0 c -0.9,0 -1.3,0.5 -1.3,1.6 l 0,0.7 z"
           id="path11"
           inkscape:connector-curvature="0"
           style="fill:#666666" />
        <path
           class="st6"
           d="m 149,256.2 -2,0 -2.4,-10.4 1.7,0 1.7,7.8 1.7,-7.8 1.7,0 -2.4,10.4 z"
           id="path13"
           inkscape:connector-curvature="0"
           style="fill:#666666" />
        <path
           class="st6"
           d="m 154.5,251.8 0,0.7 c 0,1 0.4,1.6 1.3,1.6 l 3.4,0 0,2.1 -3.4,0 c -2,0 -3,-1.2 -3,-3.6 l 0,-3.1 c 0,-2.4 1,-3.6 3,-3.6 l 0.9,0 c 2,0 3,1.2 3,3.6 l 0,2.4 -5.2,0 z m 0,-1.6 3.4,0 0,-0.7 c 0,-1 -0.4,-1.6 -1.3,-1.6 l -0.9,0 c -0.9,0 -1.3,0.5 -1.3,1.6 l 0,0.7 z"
           id="path15"
           inkscape:connector-curvature="0"
           style="fill:#666666" />
        <path
           class="st6"
           d="m 163,256.2 -1.7,0 0,-10.4 1.5,0 0.3,1 c 0.6,-0.7 1.3,-1 2.1,-1 l 0.4,0 0,2.1 -0.4,0 c -0.9,0 -1.6,0.2 -2.1,0.5 l 0,7.8 z"
           id="path17"
           inkscape:connector-curvature="0"
           style="fill:#666666" />
        <path
           class="st6"
           d="m 173.3,245.8 2.1,0 0,2.1 -2.1,0 0,8.3 -1.7,0 0,-8.3 -1.3,0 0,-2.1 1.3,0 0,-0.5 c 0,-2.4 1,-3.6 3,-3.6 l 0.9,0 0,2.1 -0.9,0 c -0.9,0 -1.3,0.5 -1.3,1.6 l 0,0.4 z"
           id="path19"
           inkscape:connector-curvature="0"
           style="fill:#666666" />
        <path
           class="st6"
           d="m 184.1,253.1 c 0,2.1 -0.9,3.1 -2.6,3.1 l -1.7,0 c -1.7,0 -2.6,-1 -2.6,-3.1 l 0,-4.2 c 0,-2.1 0.9,-3.1 2.6,-3.1 l 1.7,0 c 1.7,0 2.6,1 2.6,3.1 l 0,4.2 z m -5.2,0 c 0,0.7 0.3,1 0.9,1 l 1.7,0 c 0.6,0 0.9,-0.3 0.9,-1 l 0,-4.2 c 0,-0.6 -0.3,-0.9 -0.9,-0.9 l -1.7,0 c -0.6,0 -0.9,0.3 -0.9,0.9 l 0,4.2 z"
           id="path21"
           inkscape:connector-curvature="0"
           style="fill:#666666" />
        <path
           class="st6"
           d="m 187.5,256.2 -1.7,0 0,-10.4 1.5,0 0.3,1 c 0.6,-0.7 1.3,-1 2.1,-1 l 0.4,0 0,2.1 -0.4,0 c -0.9,0 -1.6,0.2 -2.1,0.5 l 0,7.8 z"
           id="path23"
           inkscape:connector-curvature="0"
           style="fill:#666666" />
        <path
           class="st6"
           d="m 196.3,255.2 c -0.6,0.7 -1.3,1 -2.1,1 -2,0 -3,-1.2 -3,-3.6 l 0,-3.1 c 0,-2.4 1,-3.6 3,-3.6 0.9,0 1.6,0.3 2.1,1 l 0.3,-1 1.5,0 0,10.4 c 0,2.8 -1.1,4.2 -3.4,4.2 l -2.7,0 0,-2.1 2.6,0 c 1.1,0 1.7,-0.7 1.7,-2.1 l 0,-1.1 z m -2.2,-7.3 c -0.9,0 -1.3,0.5 -1.3,1.6 l 0,3.1 c 0,1 0.4,1.6 1.3,1.6 0.9,0 1.6,-0.2 2.1,-0.5 l 0,-5.2 c -0.5,-0.4 -1.2,-0.6 -2.1,-0.6 z"
           id="path25"
           inkscape:connector-curvature="0"
           style="fill:#666666" />
        <path
           class="st6"
           d="m 201.4,251.8 0,0.7 c 0,1 0.4,1.6 1.3,1.6 l 3.4,0 0,2.1 -3.4,0 c -2,0 -3,-1.2 -3,-3.6 l 0,-3.1 c 0,-2.4 1,-3.6 3,-3.6 l 0.9,0 c 2,0 3,1.2 3,3.6 l 0,2.4 -5.2,0 z m 0,-1.6 3.4,0 0,-0.7 c 0,-1 -0.4,-1.6 -1.3,-1.6 l -0.9,0 c -0.9,0 -1.3,0.5 -1.3,1.6 l 0,0.7 z"
           id="path27"
           inkscape:connector-curvature="0"
           style="fill:#666666" />
        <path
           class="st6"
           d="m 211.3,252.6 c 0,1 0.4,1.6 1.3,1.6 l 0.9,0 0,2.1 -0.9,0 c -2,0 -3,-1.2 -3,-3.6 l 0,-4.7 -1.3,0 0,-2.1 1.3,0 0,-3.1 1.7,-1 0,4.2 2.1,0 0,2.1 -2.1,0 0,4.5 z"
           id="path29"
           inkscape:connector-curvature="0"
           style="fill:#666666" />
        <path
           class="st6"
           d="m 215.2,256.2 0,-2.1 3.9,0 c 0.6,0 0.9,-0.3 0.9,-1 0,-0.8 -0.3,-1.1 -0.9,-1.1 l -1.3,0 c -1.7,0 -2.6,-1 -2.6,-3 0,-2.1 0.9,-3.1 2.6,-3.1 l 3.9,0 0,2.1 -3.9,0 c -0.6,0 -0.9,0.3 -0.9,1 0,0.6 0.3,0.9 0.9,0.9 l 1.3,0 c 1.7,0 2.6,1.1 2.6,3.2 0,2.1 -0.9,3.1 -2.6,3.1 l -3.9,0 z"
           id="path31"
           inkscape:connector-curvature="0"
           style="fill:#666666" />
        <path
           class="st6"
           d="m 231.9,247.9 0,2.1 -5.2,0 0,-2.1 5.2,0 z"
           id="path33"
           inkscape:connector-curvature="0"
           style="fill:#666666" />
        <path
           class="st6"
           d="m 237.1,256.2 0,-2.1 3.9,0 c 0.6,0 0.9,-0.3 0.9,-1 0,-0.8 -0.3,-1.1 -0.9,-1.1 l -1.3,0 c -1.7,0 -2.6,-1 -2.6,-3 0,-2.1 0.9,-3.1 2.6,-3.1 l 3.9,0 0,2.1 -3.9,0 c -0.6,0 -0.9,0.3 -0.9,1 0,0.6 0.3,0.9 0.9,0.9 l 1.3,0 c 1.7,0 2.6,1.1 2.6,3.2 0,2.1 -0.9,3.1 -2.6,3.1 l -3.9,0 z"
           id="path35"
           inkscape:connector-curvature="0"
           style="fill:#666666" />
        <path
           class="st6"
           d="m 252.1,253.1 c 0,2.1 -0.9,3.1 -2.6,3.1 l -1.7,0 c -1.7,0 -2.6,-1 -2.6,-3.1 l 0,-4.2 c 0,-2.1 0.9,-3.1 2.6,-3.1 l 1.7,0 c 1.7,0 2.6,1 2.6,3.1 l 0,4.2 z m -5.2,0 c 0,0.7 0.3,1 0.9,1 l 1.7,0 c 0.6,0 0.9,-0.3 0.9,-1 l 0,-4.2 c 0,-0.6 -0.3,-0.9 -0.9,-0.9 l -1.7,0 c -0.6,0 -0.9,0.3 -0.9,0.9 l 0,4.2 z"
           id="path37"
           inkscape:connector-curvature="0"
           style="fill:#666666" />
        <path
           class="st6"
           d="m 264.1,245.8 0,10.4 c 0,2.8 -1.1,4.2 -3.4,4.2 l -2.6,0 0,-2.1 2.6,0 c 1.1,0 1.7,-0.7 1.7,-2.1 l 0,-1 c -0.6,0.7 -1.3,1 -2.1,1 -2,0 -3,-1.2 -3,-3.6 l 0,-6.8 1.7,0 0,6.8 c 0,1 0.4,1.6 1.3,1.6 0.9,0 1.6,-0.2 2.1,-0.5 l 0,-7.8 1.7,0 z"
           id="path39"
           inkscape:connector-curvature="0"
           style="fill:#666666" />
        <path
           class="st6"
           d="m 272.7,253.1 c 0,2.1 -0.9,3.1 -2.6,3.1 l -1.7,0 c -1.7,0 -2.6,-1 -2.6,-3.1 l 0,-4.2 c 0,-2.1 0.9,-3.1 2.6,-3.1 l 1.7,0 c 1.7,0 2.6,1 2.6,3.1 l 0,4.2 z m -5.2,0 c 0,0.7 0.3,1 0.9,1 l 1.7,0 c 0.6,0 0.9,-0.3 0.9,-1 l 0,-4.2 c 0,-0.6 -0.3,-0.9 -0.9,-0.9 l -1.7,0 c -0.6,0 -0.9,0.3 -0.9,0.9 l 0,4.2 z"
           id="path41"
           inkscape:connector-curvature="0"
           style="fill:#666666" />
        <path
           class="st6"
           d="m 279.6,245.8 1.7,0 0,10.4 -1.5,0 -0.3,-1 c -0.6,0.7 -1.3,1 -2.1,1 -2,0 -3,-1.2 -3,-3.6 l 0,-6.8 1.7,0 0,6.8 c 0,1 0.4,1.6 1.3,1.6 0.9,0 1.6,-0.2 2.1,-0.5 l 0,-7.9 z"
           id="path43"
           inkscape:connector-curvature="0"
           style="fill:#666666" />
        <path
           class="st6"
           d="m 288.2,252.6 c 0,1 0.4,1.6 1.3,1.6 l 3.4,0 0,2.1 -3.4,0 c -2,0 -3,-1.2 -3,-3.6 l 0,-3.1 c 0,-2.4 1,-3.6 3,-3.6 l 3.4,0 0,2.1 -3.4,0 c -0.9,0 -1.3,0.5 -1.3,1.6 l 0,2.9 z"
           id="path45"
           inkscape:connector-curvature="0"
           style="fill:#666666" />
        <path
           class="st6"
           d="m 299.8,250 c 0,-1.4 -0.6,-2.1 -1.7,-2.1 l -2.6,0 0,-2.1 2.6,0 c 2.3,0 3.4,1.4 3.4,4.2 l 0,6.2 -1.5,0 -0.3,-1 c -0.6,0.7 -1.3,1 -2.1,1 -2,0 -3,-1 -3,-3.1 0,-2.1 1,-3.1 3,-3.1 0.9,0 1.6,0.3 2.1,1 l 0,-1 z m 0,3.6 0,-1 c -0.6,-0.3 -1.3,-0.5 -2.1,-0.5 -0.8,0 -1.3,0.3 -1.3,1 0,0.7 0.4,1 1.3,1 0.9,0 1.5,-0.1 2.1,-0.5 z"
           id="path47"
           inkscape:connector-curvature="0"
           style="fill:#666666" />
        <path
           class="st6"
           d="m 304.9,256.2 -1.7,0 0,-10.4 1.5,0 0.3,1 c 0.6,-0.7 1.3,-1 2.1,-1 2,0 3,1.2 3,3.6 l 0,6.8 -1.7,0 0,-6.8 c 0,-1 -0.4,-1.6 -1.3,-1.6 -0.9,0 -1.6,0.2 -2.1,0.5 l 0,7.9 z"
           id="path49"
           inkscape:connector-curvature="0"
           style="fill:#666666" />
      </g>
      <g
         transform="translate(329.05415,497.48814)"
         id="g75">
        <path
           class="st9"
           d="m 140.9,198.6 c 5.7,0 8.5,2.8 8.5,8.5 l 0,17 c 0,5.7 -2.8,8.5 -8.5,8.5 l -13.3,0 0,-33.9 13.3,0 z m 3.6,8.5 c 0,-2.4 -1.2,-3.6 -3.6,-3.6 l -8.5,0 0,24.2 8.5,0 c 2.4,0 3.6,-1.2 3.6,-3.6 l 0,-17 z"
           id="path77"
           inkscape:connector-curvature="0"
           style="fill:#008bcb" />
        <path
           class="st9"
           d="m 177.2,224 c 0,5.7 -2.8,8.5 -8.5,8.5 l -6.1,0 c -5.7,0 -8.5,-2.8 -8.5,-8.5 l 0,-17 c 0,-5.7 2.8,-8.5 8.5,-8.5 l 6.1,0 c 5.7,0 8.5,2.8 8.5,8.5 l 0,17 z m -18.1,0 c 0,2.4 1.2,3.6 3.6,3.6 l 6.1,0 c 2.4,0 3.6,-1.2 3.6,-3.6 l 0,-17 c 0,-2.4 -1.2,-3.6 -3.6,-3.6 l -6.1,0 c -2.4,0 -3.6,1.2 -3.6,3.6 l 0,17 z"
           id="path79"
           inkscape:connector-curvature="0"
           style="fill:#008bcb" />
        <path
           class="st9"
           d="m 182.1,232.5 0,-4.8 13.3,0 c 2.4,0 3.6,-1.2 3.6,-3.6 l 0,-2.4 c 0,-2.4 -1.2,-3.6 -3.6,-3.6 l -4.8,0 c -5.7,0 -8.5,-2.8 -8.5,-8.5 l 0,-2.4 c 0,-5.7 2.8,-8.5 8.5,-8.5 l 13.3,0 0,4.8 -13.3,0 c -2.4,0 -3.6,1.2 -3.6,3.6 l 0,2.4 c 0,2.4 1.2,3.6 3.6,3.6 l 4.8,0 c 5.7,0 8.5,2.8 8.5,8.5 l 0,2.4 c 0,5.7 -2.8,8.5 -8.5,8.5 l -13.3,0 z"
           id="path81"
           inkscape:connector-curvature="0"
           style="fill:#008bcb" />
        <path
           class="st9"
           d="m 228.1,213.1 0,4.8 -14.5,0 0,9.7 14.5,0 0,4.8 -19.4,0 0,-33.9 19.4,0 0,4.8 -14.5,0 0,9.7 14.5,0 z"
           id="path83"
           inkscape:connector-curvature="0"
           style="fill:#008bcb" />
        <path
           class="st18"
           d="m 246.2,198.6 c 5.7,0 8.5,2.8 8.5,8.5 l 0,2.4 c 0,3.6 -1.4,5.6 -4.1,6.1 2.7,0.5 4.1,2.5 4.1,6.1 l 0,2.4 c 0,5.7 -2.8,8.5 -8.5,8.5 l -13.3,0 0,-33.9 13.3,0 z m -8.4,4.8 0,9.7 8.5,0 c 2.4,0 3.6,-1.2 3.6,-3.6 l 0,-2.4 c 0,-2.4 -1.2,-3.6 -3.6,-3.6 l -8.5,0 z m 0,14.6 0,9.7 8.5,0 c 2.4,0 3.6,-1.2 3.6,-3.6 l 0,-2.4 c 0,-2.4 -1.2,-3.6 -3.6,-3.6 l -8.5,0 z"
           id="path85"
           inkscape:connector-curvature="0"
           style="fill:#df315b" />
        <path
           class="st18"
           d="m 282.6,224 c 0,5.7 -2.8,8.5 -8.5,8.5 l -6.1,0 c -5.7,0 -8.5,-2.8 -8.5,-8.5 l 0,-17 c 0,-5.7 2.8,-8.5 8.5,-8.5 l 6.1,0 c 5.7,0 8.5,2.8 8.5,8.5 l 0,17 z m -18.2,0 c 0,2.4 1.2,3.6 3.6,3.6 l 6.1,0 c 2.4,0 3.6,-1.2 3.6,-3.6 l 0,-17 c 0,-2.4 -1.2,-3.6 -3.6,-3.6 l -6.1,0 c -2.4,0 -3.6,1.2 -3.6,3.6 l 0,17 z"
           id="path87"
           inkscape:connector-curvature="0"
           style="fill:#df315b" />
        <path
           class="st18"
           d="m 309.2,198.6 0,4.8 -8.5,0 0,29.1 -4.8,0 0,-29.1 -8.5,0 0,-4.8 21.8,0 z"
           id="path89"
           inkscape:connector-curvature="0"
           style="fill:#df315b" />
      </g>
    </g>
  </g>
</svg>
